<svg xmlns="http://www.w3.org/2000/svg" width="1208" height="1343" fill="none" viewBox="0 0 1208 1343">
  <path fill="#fff" d="M274.117 1091.76c2.745 1.97 5.882 3.93 8.628 5.89 3.137 1.96 5.882 3.92 9.019 5.49 2.745 1.57 5.098 3.13 7.843 4.7.392.4.785.4 1.177.79 9.019 5.49 18.431 10.59 27.843 15.29a89.029 89.029 0 0 0 8.627 4.32s.393.39.785.39c3.137 1.57 6.274 3.13 9.411 4.7 6.275 3.14 12.942 5.89 19.216 8.63 3.137 1.57 6.667 2.75 9.804 3.92 3.137 1.18 6.667 2.75 9.804 3.92 3.137 1.18 6.667 2.75 9.804 3.93h.392c3.137 1.17 6.667 2.35 9.804 3.52 7.059 2.36 14.51 4.71 21.569 7.06 2.353.79 5.098 1.57 7.451 2.36a236.202 236.202 0 0 0 22.353 5.88c2.745.78 5.49 1.18 8.627 1.96 7.059 1.57 14.51 3.14 21.569 4.71 1.568.39 2.745.39 4.313.78 2.353.39 5.098.78 7.451 1.18 3.53.39 6.667 1.17 10.196 1.56 1.569.4 3.138.4 4.706.79 1.961.39 4.314.78 6.667.78 6.274.79 12.941 1.57 19.216 2.36 1.96.39 4.313.39 6.274.78h.392c2.745.39 5.49.39 8.236.79 2.745.39 5.49.39 8.235.39 1.568 0 3.529.39 5.098.39 3.137 0 5.882.39 8.627.39 3.922 0 7.451.39 11.373.39h19.608c165.49-2.35 314.117-72.55 420.395-183.92 0 0 0-.39.39-.39 11.76-10.588 1.57-67.059-45.883-102.745-59.608-45.098-202.353-73.333-202.353-73.333s-55.294-9.02-260.392 33.725c-120 25.098-211.373 61.569-262.353 160.393-10.589 20.39-21.177 51.76 16.078 68.23Z"/>
  <path fill="#213547" d="M519.215 858.823c-75.294 15.295-155.686 31.765-217.647 81.569-20.784 16.863-34.51 41.569-45.882 65.488-5.49 11.77-10.981 23.92-15.294 36.87-2.353 8.62-5.883 18.43-3.922 28.62.392 2.75 2.745 6.28 4.706 8.24 9.02 9.02 18.823 14.51 28.627 21.57 57.647 40 123.922 68.23 192.549 83.13 152.942 33.34 318.432 7.45 452.942-72.94 44.705-27.06 85.886-60 121.176-98.82 3.92-4.71 3.92-12.55 3.92-17.648-.39-11.765-3.53-23.137-7.45-33.726-9.41-24.313-21.57-48.627-42.352-65.49-14.902-10.196-30.981-18.823-47.451-25.882-51.765-21.961-106.275-37.255-162.353-43.53-4.706-.392-5.49 6.275-.785 7.059 53.726 10.981 107.059 27.451 156.863 49.804 18.039 9.02 37.255 16.863 51.765 30.981 13.723 14.902 23.533 33.333 31.373 52.156 5.1 11.373 8.63 29.412 7.06 38.436-24.71 29.41-53.727 55.29-85.1 77.64-171.764 120-432.549 127.85-615.294 27.85-16.47-9.02-32.549-19.22-47.843-29.81-7.451-5.1-15.294-9.41-21.176-15.29-.393-.39 0 0 0 .39s.392.78.392.78c-.392-4.7 1.176-10.98 3.137-17.25 7.059-22.75 18.431-46.67 30.588-67.451 19.216-30.981 51.765-50.589 84.706-66.275 22.745-10.588 46.667-18.823 70.98-26.667 24.314-7.843 49.02-14.509 73.726-20.392 6.274-1.568 4.314-10.588-1.961-9.412Z"/>
  <path fill="#fff" d="M220.394 1147.45c7.451-58.04 40.392-155.686 60.392-181.961 21.961-28.627 30.98-37.647 104.314-62.353 3.921-19.608 18.431-69.019 35.686-89.804 26.274-39.608 98.039-48.627 119.608-43.921 0 0 116.078-40.785 249.804-40.785 42.353 9.412 91.372 28.628 118.039 69.02 18.039 26.667-2.353 35.294 6.667 59.608 2.352 6.274 57.254 37.647 79.607 56.47 10.199 8.236 21.569 29.02 29.409 56.079 15.69 55.297-1.17 131.767 18.43 198.427 37.65 128.63 114.12 167.06 114.12 167.06H143.139c.784-.39 61.176-65.49 77.255-187.84Z"/>
  <path fill="#213547" d="M226.275 1148.24c7.843-51.38 23.529-102.36 43.529-150.2 9.804-23.138 24.706-45.491 45.49-59.216 10.588-6.667 22.353-11.765 34.51-16.863 12.157-4.706 24.706-9.02 36.863-13.333 1.96-.785 3.529-2.353 3.921-4.314 1.569-7.843 3.53-15.294 5.883-23.137 10.196-31.765 21.176-67.059 50.98-85.49 22.745-13.726 49.804-20.393 76.078-21.569 5.098 0 10.589 0 15.295.784h1.568c.392 0 1.177 0 1.569-.392 18.823-9.02 39.608-14.51 60-20 61.176-14.118 125.098-20 187.843-20.392 38.431 9.02 92.157 30.196 115.686 69.412 3.922 6.274 5.883 12.549 5.098 19.608-.784 7.843-3.529 16.47-1.568 24.705.784 3.53 1.568 7.451 3.137 10.589 3.137 4.313 8.235 7.058 12.157 9.804 20.392 13.333 41.176 25.098 60.784 38.823 6.667 4.706 12.941 9.02 17.652 15.686 13.72 19.608 21.96 43.138 25.49 66.667 6.27 47.848 0 96.468 6.27 144.318 7.06 47.84 25.49 94.11 51.37 134.9 18.04 27.45 40 52.94 67.85 70.59l2.74-10.98H143.137l4.314 9.8c11.765-13.33 21.177-27.84 29.804-43.14 26.667-44.7 42.353-95.29 49.02-146.66Zm-11.765-1.57c-4.314 33.33-12.549 66.27-25.098 97.64-12.549 30.98-28.236 61.18-50.196 86.67-3.138 3.53-.392 10.2 4.313 9.8H1156.86c3.14 0 5.89-2.74 5.89-5.88 0-2.35-1.18-4.31-3.14-5.1-6.28-3.53-12.55-8.62-18.43-13.72-51.38-46.28-83.53-114.9-94.12-183.14-9.02-63.92 7.84-132.94-20.79-193.724-6.66-14.118-14.9-29.02-28.231-38.039-24.313-18.039-50.98-31.373-74.902-49.02-.392 0-.392-.392-.392-.392.392.392.784 1.176.784 1.569-2.353-5.491-3.137-10.196-2.353-16.471 1.177-7.843 3.138-18.431.393-26.667-1.177-4.705-3.53-9.019-5.883-12.549-28.235-42.353-78.039-61.176-125.49-71.764-13.333.392-27.059-1.961-40.392-1.961-18.431 0-37.255 2.745-55.686 5.098-52.942 8.235-103.922 22.353-156.079 33.725l3.53-.392c-12.157-2.353-23.53-1.176-35.294.392-75.295 11.373-100.785 44.314-121.177 114.51-2.353 7.843-4.314 15.686-6.274 23.922l3.921-4.706c-37.647 13.333-80 25.49-103.921 60.392-8.628 10.588-14.902 23.137-20.393 35.686-20 50.201-35.686 100.781-43.921 154.121Z"/>
  <path fill="#213547" d="M838.43 889.413c-29.019 61.961-74.117 114.507-127.843 156.077-1.961 1.57 0 4.71 2.353 3.53 47.843-22.74 88.235-61.568 112.157-108.626 7.843-15.687 14.51-32.55 16.863-50.197.784-1.96-2.353-2.745-3.53-.784Zm-459.216 12.941c-1.176 65.49 25.491 132.546 76.471 174.906 1.176 1.17 2.745.78 3.922-.4 1.176-1.17.784-2.74-.393-3.92-11.372-10.98-22.745-22.35-31.372-35.68-18.039-25.89-29.02-56.475-34.118-87.455-2.353-15.294-3.921-31.765-2.745-47.059.392-7.451-11.372-8.235-11.765-.392Zm230.982 155.686c9.02 31.76 16.47 66.27 12.157 99.22-1.177 7.45 10.196 9.41 11.764 1.56 1.961-18.04-.392-35.68-3.529-52.94-3.529-17.25-7.843-33.72-13.725-50.19-1.569-3.92-8.236-1.96-6.667 2.35Zm-124.706-5.88c-12.941 27.84-21.96 56.86-29.019 86.27-.785 3.14 1.176 6.28 4.313 7.06 3.138.78 6.275-1.18 7.059-4.31 3.922-21.96 9.02-43.92 16.079-65.49 2.353-7.06 4.706-14.12 7.451-21.18 1.568-3.53-3.922-6.27-5.883-2.35Z"/>
  <path fill="#213547" d="M906.667 855.686c-14.51 79.216-70.196 146.274-137.255 189.024-22.745 14.51-47.059 27.05-72.157 37.25-1.569.79-2.353 2.35-1.569 3.92.392 1.57 2.353 2.36 3.53 1.57 25.882-9.41 50.98-21.18 74.509-35.29 47.844-28.24 89.804-67.454 118.04-115.297 14.509-24.706 25.882-50.588 31.372-78.824.785-4.706-2.353-9.019-7.059-9.804-4.313-1.176-9.019 2.353-9.411 7.451Zm-272.94 310.194c10.981-1.17 18.824-11.37 16.471-22.35l-4.314-20.78c-1.568-8.24-9.412-14.12-17.647-12.95-8.235.79-14.902 7.85-14.902 16.47v21.18c-.392 10.98 9.02 19.61 20.392 18.43Zm-180.786-14.51c10.588 3.92 21.961-2.35 24.706-13.33l5.098-20.78c1.961-8.24-2.353-16.48-10.588-19.61-7.843-2.75-16.863.78-20.392 8.23l-9.412 19.22c-4.706 10.59 0 22.74 10.588 26.27Z"/>
  <path stroke="#213547" stroke-linecap="round" stroke-linejoin="round" stroke-miterlimit="10" stroke-width="5.126" d="M963.922 1334.9s3.529-87.45 15.294-110.98m-707.451-84.31s-21.961 123.14-13.334 195.29m76.471-76.86s58.039 8.63 109.019 6.27"/>
  <path fill="#213547" d="M783.923 841.569c5.49-15.686 7.843-31.764 6.666-48.235 0-1.569-1.176-2.353-2.745-2.353-1.176 0-2.353 1.176-2.353 2.353-1.176 14.902-5.49 30.196-12.549 43.137-3.529 7.843 8.236 12.941 10.981 5.098Zm-265.098 20.785c10.981-24.706 38.039-37.255 61.961-45.883 14.902-4.706 31.373-8.235 47.059-10.588 38.039-5.882 91.765-14.902 129.804-18.824.392 0 .392-.784 0-.784-10.981-1.176-21.961-1.176-32.941-1.176-32.942.784-65.883 4.313-98.432 9.411-32.549 5.098-67.451 14.902-92.157 38.432-7.843 8.235-14.902 17.647-16.862 29.019-.393 1.177 1.176 1.569 1.568.393Z"/>
  <path fill="#fff" d="M482.356 963.138c8.235 40.392 61.568 64.702 151.372 28.235 93.334-37.647 133.726-127.451 143.922-154.118-55.294-103.529-16.863-175.294-16.863-175.294C633.336 650.981 521.964 800 521.964 800l-17.255 73.726c-1.569 6.274-4.706 11.765-9.412 15.686-8.235 14.51-18.039 47.843-12.941 73.726Z"/>
  <path fill="#213547" d="M779.609 838.432c-7.451-11.373-12.157-24.706-15.294-37.647-5.883-27.059-7.844-54.51-8.236-81.961v-10.196c1.177-10.196 4.706-20.784 8.628-30.196 5.098-12.549-13.334-20.392-19.216-7.843-.784 1.568-.784 4.313-.784 5.882-1.177 53.333-3.53 121.961 30.196 166.275 2.353 2.353 7.059-1.177 4.706-4.314Zm-261.96-39.216c-5.882 3.53-7.843 8.236-8.627 12.942-2.353 9.411-1.569 19.608-3.922 29.411-1.961 9.412-7.843 18.432-9.412 28.236-1.96 10.196-7.843 31.764-10.196 42.353-.784 2.353.785 5.098 3.53 5.49 1.568.392 2.745 0 3.921-.784 5.098-4.314 7.451-8.628 10.588-14.118 5.098-9.412 8.628-18.039 11.765-28.628 2.745-9.411 1.569-19.607 3.922-29.411 1.961-9.412 7.451-18.432 9.412-28.236 1.176-4.706 1.568-9.804-1.961-15.686-2.353-2.353-6.275-3.137-9.02-1.569Z"/>
  <path fill="#213547" d="M489.413 902.745c74.902-3.921 136.078-27.451 195.686-133.725-50.196 44.314-109.412 61.176-171.765 69.02l-8.235 36.078c-1.569 6.274-10.98 24.706-15.686 28.627Z"/>
  <path fill="#213547" d="M492.548 888.236c-13.333 25.098-21.176 56.47-12.941 84.313 6.275 19.608 24.314 34.121 43.922 39.611 45.49 12.15 98.039-7.06 138.431-28.63 49.804-27.843 86.667-74.51 110.196-125.49 1.569-3.922-3.921-7.059-6.274-3.138-8.236 16.471-17.647 32.549-28.236 47.059-10.588 14.902-22.745 28.628-36.47 40.784-40 36.079-94.118 58.435-148.236 58.435-55.686-1.572-76.862-30.984-63.921-85.101 1.961-8.628 5.098-17.647 9.412-25.098 2.353-3.138-3.53-6.667-5.883-2.745Z"/>
  <path fill="#fff" d="M340.785 417.255c-7.059 32.941-10.588 59.608 8.627 147.451 18.824 87.451-27.058 105.49 81.569 245.49 44.314 57.255 151.765 41.177 238.824-18.039 29.411-20 41.96-71.372 63.921-107.843 17.255-28.627 25.098 1.176 47.843-23.529 30.981-33.726 68.236-101.569 49.804-221.569-29.804-194.51-183.921-217.255-298.039-195.686-114.902 21.96-173.726 87.058-192.549 173.725Z"/>
  <path fill="#213547" d="M761.962 695.686c9.019-15.294 20.784-28.627 31.764-42.745 10.589-14.509 19.216-30.588 26.275-47.058 46.666-114.51 28.627-275.687-85.883-343.138-47.451-27.451-104.705-34.117-158.039-29.804-114.117 8.236-218.823 60.785-243.529 181.569-13.334 53.333 4.706 108.235 14.902 160.392 4.706 25.883.784 52.549 1.176 79.216.392 27.059 7.843 54.117 18.039 79.216 6.275 17.254 17.255 32.548 28.628 46.666 18.823 22.745 37.647 45.883 61.569 63.53 5.49 3.921 15.294 5.882 21.96 6.666 18.432 2.745 36.471 3.53 54.902 2.353 72.157-3.137 149.412-38.039 178.432-107.843 1.176-2.745-2.745-4.706-4.314-2.353-37.647 59.608-106.667 89.02-175.294 92.941-21.177 1.177-42.745.785-63.53-3.529-10.196-5.098-19.215-14.118-27.843-22.353-21.176-21.177-42.745-43.922-58.039-69.804-18.431-34.902-28.627-72.941-25.49-112.549.784-17.647 1.176-36.078-2.353-53.725-3.137-17.648-7.059-34.51-9.412-52.549a388.461 388.461 0 0 1-3.529-52.157c1.961-50.589 18.431-102.745 50.588-141.961 70.98-88.235 238.823-111.373 333.333-50.981 59.608 36.863 87.451 105.883 96.471 172.942 13.725 80.392 9.804 159.607-54.118 218.039l-18.823 19.608c-7.451 8.627 5.882 18.823 12.157 9.411Z"/>
  <path fill="#fff" d="M715.689 570.98s12.156-58.823 69.411-51.765c49.412 6.275 66.667 124.706-45.49 157.648"/>
  <path fill="#213547" d="M744.707 625.49c9.019-5.098 15.294-13.725 15.686-24.314-.392-7.843-1.568-16.862.392-24.705 1.177-7.451 9.02-9.412 14.902-9.02 6.275 1.176 10.196 9.02 11.373 15.294 0 .392.392 1.569.392 1.961.392 1.961 3.529 1.961 4.314 0 5.098-15.294-6.275-32.157-22.745-30.196-23.138 1.568-26.275 25.882-21.961 44.313 2.353 7.844-.785 14.902-5.098 21.569l-.785 1.177c-1.96 2.352 1.177 5.49 3.53 3.921Zm-313.725-96.078c-5.882 27.843-16.863 53.725-30.588 78.039-12.157 29.804 19.216 58.039 47.059 56.862 3.137 0 3.529-4.313.784-5.098-17.647-5.49-33.725-17.254-36.471-35.294-1.176-5.49.393-10.196 3.138-14.902 12.941-24.313 20.784-52.157 18.823-79.607 0-1.961-2.745-1.961-2.745 0Z"/>
  <path fill="#213547" d="M717.648 571.373c9.02-23.138 28.627-45.098 54.902-44.706 2.353-.392 6.274.392 8.627.392 6.667.392 12.157 2.745 17.255 7.451 25.098 25.098 20.785 69.412.392 97.255-7.058 9.804-16.078 18.431-26.274 25.49-10.196 7.059-21.569 12.549-33.726 17.255-2.745.784-1.568 5.098 1.177 4.706 26.274-5.49 51.372-18.432 68.627-40 26.667-32.157 32.157-85.883.393-117.255-7.059-6.275-16.863-10.981-26.667-10.981-3.137 0-7.843-.784-10.981 0-16.47.785-32.156 9.02-42.352 21.961-9.02 10.981-14.118 24.314-15.687 37.647 0 2.353 3.53 3.138 4.314.785Z"/>
  <path fill="#fff" d="M469.806 701.961c-.392 12.941 18.823 45.883 55.686 30.588 35.686-14.509 46.274-82.745-4.706-50.196-25.882 17.255-42.353 20-50.98 19.608Z"/>
  <path fill="#213547" d="M461.57 702.353c10.589 3.53 20.785.393 30.589-3.137 14.509-5.098 26.274-14.51 40-21.176 18.823-9.02 26.274 3.137 21.176 20.784-5.098 18.824-21.569 35.294-41.961 36.078-18.039 1.961-37.255-14.509-35.686-32.941 1.569-7.843-9.804-10.196-11.765-2.745.392 13.334 8.628 22.745 17.255 30.588 17.255 14.118 43.53 10.981 60.784-1.96 13.334-10.589 24.314-27.451 21.961-45.491-.784-7.843-8.235-16.862-16.47-17.254-19.216-1.569-30.589 11.372-45.491 20-11.764 6.666-25.098 14.902-38.823 13.725-2.353-.784-3.922 2.353-1.569 3.529Z"/>
  <path fill="#213547" d="M552.553 687.843c-6.275 9.02-16.079 13.726-26.275 16.079-2.353.784-4.314.784-6.274.784-3.53 0-7.059 2.745-9.02 4.706-9.412 7.451-22.353 8.627-34.118 9.019-2.745 0-2.745 4.706 0 4.314 12.549-.784 25.883-1.961 37.647-7.843 2.353-.784 3.53-1.569 5.491-1.569 7.451.785 13.333-3.921 18.823-7.059 6.275-3.529 12.549-7.058 20-8.627 3.529-.784 5.49-3.922 5.098-7.451-.784-5.49-8.627-7.059-11.372-2.353Zm-35.69-209.412c-8.627-.784-12.941-10.98-8.235-18.823 2.745-3.922 6.274-7.451 11.372-9.412 14.902-4.706 63.53 5.882 84.706 30.196 18.824 22.353-48.627 1.568-87.843-1.961Zm-103.53 6.274c6.667-1.96 8.627-11.764 3.137-18.039-2.745-3.137-6.667-5.882-10.98-6.666-13.334-2.353-43.922 9.803-52.549 32.941-7.843 20 28.627-.392 60.392-8.236Zm163.92 84.707c9.412-.392 16.471-8.235 15.686-17.647l-.392-10.981c-.392-9.411-8.235-16.47-17.647-15.686-9.411.392-16.47 8.235-15.686 17.647l.392 10.981c.392 9.019 8.235 16.078 17.647 15.686Zm-165.096 5.882c8.628-.393 15.294-7.844 14.902-16.471l-.392-10.196c-.392-8.628-7.843-15.294-16.47-14.902-8.628.392-15.295 7.843-14.902 16.471l.392 10.196c.392 8.627 7.843 15.294 16.47 14.902Z"/>
  <path fill="#213547" d="M541.961 548.235c12.941-8.628 27.059-14.51 42.745-11.373 5.098.785 10.196 2.353 13.333 5.883 1.177 1.568 3.922 1.176 3.922-1.177-.392-7.843-7.059-12.941-13.333-16.078-12.157-6.275-29.02-5.098-40 3.137-3.922 2.353-17.255 16.863-10.196 20 1.568.784 2.352.392 3.529-.392Zm-112.155 1.961c0-16.47-20.392-22.353-32.941-16.47-7.059 3.137-12.157 9.411-14.118 16.862-.784 2.353 2.745 4.314 4.314 2.353 6.667-7.843 18.039-11.764 27.059-7.059 2.745 1.569 3.137 2.746 3.921 4.314 0 7.843 11.373 7.451 11.765 0Z"/>
  <path fill="#213547" d="M309.02 357.254c-26.667-23.137-65.883-58.039-25.49-106.666 40.392-48.628 114.902-29.804 114.902-29.804S382.745 176.078 426.275 160c52.549-19.216 201.568 38.823 201.568 38.823 10.981-.392 21.569-.784 31.373-.784 128.627-2.745 165.882 78.431 167.451 151.372 0 0 43.529 14.51 54.51 83.922 3.529 22.353 7.058 50.98-1.569 85.49-23.137 94.118-85.49 159.608-125.098 192.941-14.902-10.98 11.372-26.274 9.412-44.313 85.098-41.569 66.666-142.353 21.176-148.236-34.902-4.313-53.333 16.079-61.961 32.549-3.529 4.706 43.53-257.647-227.843-171.764-53.725 16.862-109.019 31.764-146.666 4.705-4.314 8.236-7.059 18.04-7.844 32.549 0 0-65.49-25.49-55.686-52.156 3.137-9.02 23.922-7.844 23.922-7.844Z"/>
  <path fill="#213547" d="M513.722 618.039c18.04.392 73.726.784 90.981 1.177 29.804.392 52.157-25.491 49.412-54.902-.393-9.804 0-23.53-.393-33.334-.784-25.49-23.529-47.059-49.019-46.274l-66.275.784c-5.098 0-19.608.392-24.706.392-21.176-.392-41.176 15.294-45.882 36.079-1.569 5.882-1.176 12.157-1.176 17.255v33.333c.392 24.706 22.353 45.882 47.058 45.49Zm0-8.627c-20.392.784-39.215-16.863-39.607-37.255-.393-10.588 0-21.961 0-32.941-2.353-23.922 15.686-45.883 40-45.098 16.862.392 73.333.784 90.98 1.176 21.176 0 39.216 19.216 37.647 40.392v12.549c-.392 8.628.784 23.53-1.176 31.373-3.922 16.47-19.608 29.019-36.471 29.019h-8.235c-11.373 0-71.373.785-83.138.785ZM355.685 496.079l30.981.392c8.627.392 18.823-1.177 26.274 3.921 7.059 4.706 10.196 13.334 9.804 21.569 0 10.196 0 20.784.392 30.98l.392-1.568c-5.49 19.215-12.941 37.647-24.313 53.725l3.921-2.353c-3.137.785-8.627.785-11.765.785-11.764.392-25.49 1.176-37.254 1.176-10.981 0-21.569-8.235-23.922-19.216-.784-3.137-.784-8.627-.784-11.764 0-16.863-.392-33.334.392-50.196-.784-14.902 10.588-28.236 25.882-27.451Zm0-11.765c-20.784 0-35.294 20-31.764 39.608.784 16.863.392 33.333.392 50.196-1.961 19.608 9.804 37.255 30.196 38.823 8.627.393 16.862.393 25.098.785 4.314 0 14.902.784 18.823.784 1.961.392 5.098 0 7.059 0 1.569 0 3.137-1.176 3.922-2.353 12.157-18.039 20.784-38.039 25.882-58.823 0-13.334 1.177-26.667 0-40-2.353-15.687-16.471-29.02-32.549-29.412-10.98-.392-36.078.392-47.059.392Z"/>
  <path fill="#213547" d="M470.979 520.392c-10.588-4.706-22.353-6.666-34.118-5.882-3.921.392-7.843 1.568-11.372 4.706l-5.098 4.313c-5.098 4.314 1.176 11.765 6.274 7.451 6.275-5.49 13.726-4.705 21.177-4.313 7.451.784 14.51 2.353 21.568 5.098 6.667 2.745 10.981-7.059 4.706-10.196l-3.137-1.177ZM647.45 534.51c2.745 6.274 5.882 7.059 10.98 6.666l11.373.393c22.745 0 45.882-.392 68.627-3.922 7.843-.392 8.235-11.372.392-11.765l-90.98-3.137c-2.745 0-4.706 2.745-3.53 5.098l3.138 6.667Z"/>
  <path fill="#213547" d="M127 67h1021.5c32.69 0 59.02 26.81 58.43 59.49L1206 178l-2 100-2.5 66.5-3.5 75c-.37 3.691-5.81 3.706-6 0l-2-75v-221c0-22.92-18.58-41.5-41.5-41.5h-1020C103.923 82 84 101.923 84 126.5V1280c0 25.41 20.595 46 46 46h1012c26.51 0 48-21.49 48-48v-257.75l2-122.25-1-367.5.44-5.735c.27-3.65 5.6-3.717 5.97-.075l.59 5.81 7 367 3 122.75V1283c0 33.14-26.86 60-60 60H127c-33.137 0-60-26.86-60-60V127c0-33.137 26.863-60 60-60Z"/>
</svg>
