<svg xmlns="http://www.w3.org/2000/svg" width="746" height="746" fill="none" viewBox="0 0 746 746">
  <mask id="a" width="744" height="744" x="2" y="0" maskUnits="userSpaceOnUse" style="mask-type:alpha">
    <circle cx="371.777" cy="371.777" r="371.777" fill="#D9D9D9" transform="matrix(-1 0 0 1 746 0)"/>
  </mask>
  <g mask="url(#a)">
    <path fill="#fff" d="M170.409 678.714c1.707 1.219 3.657 2.438 5.364 3.657 1.95 1.219 3.657 2.438 5.607 3.413 1.707.975 3.169 1.95 4.876 2.925.244.244.487.244.731.488 5.607 3.413 11.458 6.582 17.309 9.508a54.951 54.951 0 0 0 5.364 2.681s.244.244.487.244l5.851 2.926c3.901 1.95 8.045 3.657 11.946 5.363 1.95.975 4.145 1.707 6.095 2.438 1.95.731 4.144 1.707 6.095 2.438 1.95.731 4.144 1.707 6.094 2.438h.244c1.951.731 4.145 1.463 6.095 2.194 4.388 1.463 9.02 2.925 13.409 4.388 1.462.488 3.169.975 4.632 1.463a145.918 145.918 0 0 0 13.896 3.657c1.706.487 3.413.731 5.363 1.219 4.388.975 9.02 1.95 13.409 2.925.975.244 1.706.244 2.681.488 1.463.244 3.169.487 4.632.731 2.194.244 4.145.732 6.339.975.975.244 1.95.244 2.925.488 1.219.244 2.682.488 4.145.488 3.9.487 8.045.975 11.945 1.462 1.219.244 2.682.244 3.901.488h.244c1.706.244 3.413.244 5.12.487 1.706.244 3.413.244 5.119.244.975 0 2.194.244 3.169.244 1.951 0 3.657.244 5.364.244 2.438 0 4.632.244 7.07.244h12.189c102.88-1.463 195.277-45.102 261.344-114.338 0 0 0-.244.244-.244 7.314-6.582.975-41.688-28.524-63.873-37.056-28.036-125.796-45.589-125.796-45.589s-34.374-5.607-161.877 20.966c-74.6 15.603-131.403 38.275-163.096 99.71-6.582 12.677-13.165 32.181 9.995 42.42Z"/>
    <path fill="#213547" d="M322.779 533.902c-46.808 9.508-96.785 19.747-135.304 50.709-12.921 10.483-21.454 25.842-28.524 40.713-3.413 7.313-6.826 14.871-9.507 22.916-1.463 5.363-3.657 11.458-2.438 17.797.243 1.706 1.706 3.9 2.925 5.119 5.607 5.608 11.702 9.021 17.797 13.409 35.837 24.867 77.038 42.42 119.701 51.684 95.079 20.722 197.958 4.632 281.579-45.346 27.792-16.821 53.39-37.299 75.331-61.435 2.438-2.925 2.438-7.801 2.438-10.97-.244-7.314-2.194-14.384-4.632-20.966-5.851-15.115-13.409-30.23-26.33-40.713-9.264-6.339-19.259-11.702-29.498-16.091-32.181-13.652-66.068-23.16-100.93-27.06-2.925-.244-3.413 3.9-.487 4.388 33.399 6.826 66.555 17.065 97.516 30.961 11.214 5.607 23.16 10.483 32.18 19.26 8.533 9.264 14.628 20.722 19.504 32.424 3.169 7.07 5.363 18.284 4.388 23.891-15.359 18.285-33.399 34.375-52.903 48.271-106.78 74.6-268.901 79.476-382.507 17.309-10.24-5.607-20.235-11.946-29.743-18.528-4.632-3.169-9.508-5.851-13.165-9.508-.243-.244 0 0 0 .244s.244.488.244.488c-.244-2.926.732-6.827 1.95-10.727 4.389-14.14 11.459-29.011 19.016-41.932 11.946-19.26 32.181-31.449 52.659-41.201 14.14-6.582 29.011-11.702 44.126-16.578 15.115-4.875 30.474-9.02 45.833-12.677 3.9-.975 2.681-6.582-1.219-5.851Z"/>
    <path fill="#fff" d="M137.011 713.332c4.632-36.082 25.111-96.785 37.544-113.119 13.652-17.797 19.259-23.404 64.848-38.763 2.438-12.19 11.459-42.907 22.185-55.828 16.334-24.623 60.948-30.23 74.357-27.305 0 0 72.162-25.354 155.294-25.354 26.33 5.851 56.804 17.797 73.381 42.907 11.215 16.578-1.462 21.941 4.145 37.056 1.463 3.901 35.593 23.404 49.489 35.106 6.339 5.12 13.409 18.041 18.285 34.862 9.751 34.375-.732 81.914 11.458 123.358 23.404 79.964 70.943 103.855 70.943 103.855H88.984c.488-.243 38.032-40.713 48.027-116.775Z"/>
    <path fill="#213547" d="M140.667 713.82c4.876-31.937 14.628-63.63 27.061-93.372 6.095-14.384 15.359-28.28 28.28-36.813 6.582-4.144 13.896-7.313 21.453-10.483 7.558-2.925 15.359-5.607 22.917-8.288 1.219-.488 2.194-1.463 2.438-2.682.975-4.876 2.194-9.508 3.657-14.384 6.338-19.747 13.164-41.688 31.692-53.146 14.14-8.533 30.962-12.677 47.296-13.409 3.169 0 6.582 0 9.508.488h.975c.244 0 .731 0 .975-.244 11.702-5.607 24.623-9.02 37.3-12.433 38.031-8.777 77.769-12.434 116.776-12.677 23.891 5.607 57.291 18.772 71.918 43.151 2.438 3.9 3.657 7.801 3.169 12.189-.487 4.876-2.194 10.239-.975 15.359.488 2.194.975 4.632 1.95 6.582 1.951 2.682 5.12 4.389 7.558 6.095 12.677 8.289 25.598 15.603 37.788 24.135 4.144 2.926 8.045 5.608 10.97 9.752 8.533 12.19 13.652 26.817 15.847 41.444 3.9 29.743 0 59.973 3.9 89.716 4.388 29.742 15.847 58.509 31.937 83.864 11.214 17.065 24.867 32.911 42.176 43.882l1.706-6.826H88.984l2.681 6.095c7.314-8.289 13.165-17.31 18.528-26.817 16.578-27.793 26.33-59.242 30.474-91.178Zm-7.313-.975c-2.682 20.722-7.802 41.2-15.603 60.703-7.801 19.26-17.553 38.032-31.205 53.878-1.95 2.194-.244 6.339 2.681 6.095h629.956c1.95 0 3.657-1.706 3.657-3.657 0-1.463-.732-2.681-1.95-3.169-3.901-2.194-7.802-5.363-11.459-8.533-31.936-28.767-51.927-71.43-58.509-113.85-5.608-39.738 4.875-82.645-12.921-120.433-4.145-8.776-9.264-18.04-17.553-23.647-15.115-11.215-31.693-19.504-46.564-30.474-.244 0-.244-.244-.244-.244.244.244.487.731.487.975-1.462-3.413-1.95-6.339-1.462-10.239.731-4.876 1.95-11.458.243-16.578-.731-2.925-2.194-5.607-3.656-7.801-17.553-26.33-48.515-38.032-78.013-44.614-8.289.244-16.822-1.219-25.111-1.219-11.458 0-23.16 1.707-34.618 3.169-32.912 5.12-64.605 13.896-97.029 20.966l2.194-.243c-7.557-1.463-14.627-.732-21.941.243-46.808 7.07-62.654 27.549-75.331 71.187-1.463 4.876-2.682 9.752-3.901 14.872l2.438-2.926c-23.404 8.289-49.733 15.846-64.605 37.544-5.363 6.582-9.264 14.384-12.677 22.185-12.433 31.205-22.185 62.654-27.304 95.81Z"/>
    <path fill="#213547" d="M521.224 552.918c-18.04 38.519-46.076 71.187-79.476 97.029-1.219.975 0 2.926 1.463 2.194 29.743-14.14 54.853-38.275 69.724-67.53 4.876-9.751 9.021-20.234 10.483-31.205.488-1.219-1.462-1.706-2.194-.488Zm-285.479 8.045c-.732 40.714 15.846 82.402 47.539 108.731.731.732 1.707.488 2.438-.244.731-.731.488-1.706-.244-2.438-7.07-6.826-14.14-13.896-19.503-22.184-11.214-16.091-18.041-35.106-21.21-54.366-1.463-9.508-2.438-19.747-1.706-29.255.243-4.632-7.07-5.119-7.314-.244Zm143.593 96.785c5.607 19.747 10.239 41.201 7.558 61.679-.732 4.632 6.338 5.851 7.314.975 1.218-11.214-.244-22.185-2.195-32.911-2.194-10.727-4.875-20.966-8.532-31.206-.975-2.438-5.12-1.219-4.145 1.463Zm-77.525-3.657c-8.045 17.309-13.653 35.35-18.041 53.634-.487 1.95.732 3.901 2.682 4.388 1.95.488 3.901-.731 4.388-2.681 2.438-13.653 5.607-27.305 9.996-40.714 1.462-4.388 2.925-8.776 4.632-13.164.975-2.194-2.438-3.901-3.657-1.463Z"/>
    <path fill="#213547" d="M563.645 531.952c-9.021 49.246-43.639 90.934-85.327 117.507a278.72 278.72 0 0 1-44.858 23.16c-.975.488-1.462 1.463-.975 2.438.244.975 1.463 1.463 2.194.975 16.09-5.851 31.693-13.164 46.321-21.941 29.742-17.553 55.828-41.932 73.381-71.674 9.02-15.359 16.09-31.449 19.503-49.002.487-2.926-1.463-5.608-4.388-6.095-2.682-.731-5.608 1.463-5.851 4.632ZM393.967 724.79c6.826-.731 11.702-7.07 10.239-13.896l-2.681-12.921c-.975-5.119-5.851-8.776-10.971-8.045-5.119.488-9.264 4.876-9.264 10.239v13.165c-.244 6.826 5.607 12.19 12.677 11.458Zm-112.389-9.02c6.583 2.438 13.653-1.463 15.359-8.289l3.169-12.921c1.219-5.119-1.462-10.239-6.582-12.189-4.876-1.707-10.483.487-12.677 5.119l-5.851 11.946c-2.926 6.582 0 14.14 6.582 16.334Z"/>
    <path stroke="#213547" stroke-linecap="round" stroke-linejoin="round" stroke-miterlimit="10" stroke-width="5.126" d="M168.947 708.457s-13.652 76.55-8.289 121.407"/>
    <path fill="#213547" d="M487.339 523.176c3.413-9.752 4.875-19.747 4.144-29.987 0-.975-.731-1.462-1.707-1.462-.731 0-1.462.731-1.462 1.462-.732 9.264-3.413 18.772-7.802 26.817-2.194 4.876 5.12 8.045 6.827 3.17Zm-164.803 12.921c6.826-15.359 23.648-23.161 38.519-28.524 9.264-2.925 19.503-5.12 29.255-6.582 23.648-3.657 57.047-9.264 80.695-11.702.243 0 .243-.488 0-.488-6.826-.731-13.653-.731-20.479-.731-20.478.487-40.957 2.682-61.191 5.851-20.235 3.169-41.932 9.264-57.291 23.891-4.876 5.12-9.264 10.971-10.483 18.041-.244.731.731.975.975.244Z"/>
    <path fill="#fff" d="M299.864 598.751c5.12 25.11 38.275 40.225 94.103 17.552 58.022-23.403 83.133-79.232 89.471-95.809-34.374-64.361-10.483-108.975-10.483-108.975-79.232-6.826-148.468 85.815-148.468 85.815l-10.727 45.832c-.975 3.901-2.925 7.314-5.851 9.752-5.12 9.02-11.214 29.742-8.045 45.833Z"/>
    <path fill="#213547" d="M484.657 521.225c-4.633-7.07-7.558-15.359-9.508-23.404-3.657-16.822-4.876-33.887-5.12-50.952v-6.339c.731-6.338 2.926-12.921 5.363-18.772 3.17-7.801-8.288-12.677-11.945-4.875-.488.975-.488 2.681-.488 3.656-.731 33.156-2.194 75.819 18.772 103.368 1.463 1.462 4.388-.732 2.926-2.682Zm-162.852-24.379c-3.657 2.194-4.876 5.12-5.363 8.045-1.463 5.851-.976 12.19-2.438 18.285-1.219 5.851-4.876 11.458-5.851 17.553-1.219 6.338-4.876 19.747-6.339 26.329-.487 1.463.488 3.169 2.194 3.413.975.244 1.707 0 2.438-.488 3.169-2.681 4.632-5.363 6.582-8.776 3.17-5.851 5.364-11.214 7.314-17.797 1.707-5.851.975-12.189 2.438-18.284 1.219-5.851 4.632-11.458 5.851-17.553.731-2.925.975-6.095-1.219-9.752-1.463-1.462-3.901-1.95-5.607-.975Z"/>
    <path fill="#213547" d="M304.251 561.207c46.564-2.438 84.596-17.065 121.652-83.133-31.205 27.549-68.018 38.032-106.781 42.907l-5.119 22.429c-.975 3.901-6.826 15.359-9.752 17.797Z"/>
    <path fill="#213547" d="M306.201 552.186c-8.289 15.603-13.165 35.106-8.045 52.415 3.9 12.19 15.115 21.21 27.304 24.623 28.28 7.558 60.948-4.388 86.059-17.796 30.961-17.31 53.877-46.321 68.505-78.014.975-2.437-2.438-4.388-3.901-1.95-5.119 10.239-10.97 20.235-17.553 29.255-6.582 9.264-14.14 17.797-22.672 25.354-24.867 22.429-58.51 36.325-92.153 36.325-34.619-.975-47.783-19.259-39.738-52.903 1.219-5.363 3.169-10.97 5.851-15.602 1.463-1.95-2.194-4.145-3.657-1.707Z"/>
    <path fill="#fff" d="M211.855 259.394c-4.389 20.478-6.583 37.056 5.363 91.665 11.702 54.365-16.822 65.58 50.709 152.613 27.548 35.594 94.347 25.598 148.468-11.214 18.284-12.434 26.086-44.37 39.738-67.043 10.727-17.796 15.603.732 29.743-14.627 19.259-20.966 42.419-63.142 30.961-137.742-18.528-120.92-114.338-135.06-185.281-121.652-71.431 13.653-107.999 54.122-119.701 108Z"/>
    <path fill="#213547" d="M473.686 432.485c5.607-9.508 12.921-17.796 19.747-26.573 6.582-9.02 11.946-19.016 16.334-29.255 29.011-71.187 17.797-171.385-53.39-213.317-29.499-17.065-65.092-21.21-98.248-18.528-70.943 5.12-136.035 37.788-151.394 112.875-8.289 33.156 2.925 67.287 9.264 99.711 2.925 16.09.488 32.668.731 49.246.244 16.821 4.876 33.643 11.215 49.245 3.9 10.727 10.727 20.235 17.796 29.011 11.702 14.14 23.404 28.524 38.276 39.495 3.413 2.437 9.507 3.656 13.652 4.144 11.458 1.706 22.672 2.194 34.131 1.463 44.857-1.951 92.884-23.648 110.924-67.043.732-1.706-1.706-2.925-2.681-1.463-23.404 37.057-66.311 55.341-108.975 57.779-13.164.731-26.573.487-39.494-2.194-6.338-3.169-11.946-8.777-17.309-13.896-13.165-13.165-26.573-27.305-36.081-43.395-11.458-21.697-17.797-45.345-15.846-69.968.487-10.971.731-22.429-1.463-33.399-1.951-10.971-4.388-21.454-5.851-32.668a241.468 241.468 0 0 1-2.194-32.425c1.219-31.449 11.458-63.873 31.449-88.252 44.126-54.853 148.468-69.236 207.222-31.693 37.056 22.917 54.365 65.824 59.972 107.512 8.533 49.977 6.095 99.223-33.643 135.548l-11.702 12.189c-4.632 5.364 3.657 11.702 7.558 5.851Z"/>
    <path fill="#fff" d="M444.92 354.96s7.557-36.569 43.151-32.181c30.717 3.901 41.444 77.526-28.28 98.004"/>
    <path fill="#213547" d="M462.959 388.847c5.608-3.169 9.508-8.533 9.752-15.115-.244-4.876-.975-10.483.244-15.359.731-4.632 5.607-5.851 9.264-5.607 3.9.731 6.338 5.607 7.07 9.508 0 .243.244.975.244 1.219.243 1.219 2.194 1.219 2.681 0 3.17-9.508-3.9-19.991-14.14-18.772-14.383.975-16.334 16.09-13.652 27.548 1.463 4.876-.488 9.264-3.169 13.409l-.488.731c-1.219 1.463.732 3.413 2.194 2.438Zm-195.032-59.729c-3.657 17.309-10.483 33.399-19.016 48.514-7.557 18.528 11.946 36.081 29.255 35.35 1.95 0 2.194-2.682.488-3.169-10.971-3.413-20.966-10.727-22.673-21.942-.731-3.413.244-6.338 1.95-9.264 8.046-15.115 12.921-32.424 11.702-49.489 0-1.219-1.706-1.219-1.706 0Z"/>
    <path fill="#213547" d="M446.138 355.204c5.607-14.384 17.796-28.036 34.13-27.792 1.463-.244 3.901.243 5.364.243 4.144.244 7.557 1.707 10.726 4.633 15.603 15.602 12.921 43.151.244 60.46-4.388 6.094-9.995 11.458-16.334 15.846-6.338 4.388-13.408 7.801-20.966 10.727-1.706.487-.975 3.169.732 2.925 16.334-3.413 31.936-11.458 42.663-24.866 16.578-19.991 19.991-53.391.244-72.894-4.388-3.9-10.483-6.826-16.578-6.826-1.95 0-4.876-.488-6.826 0-10.239.488-19.991 5.607-26.329 13.652-5.608 6.826-8.777 15.115-9.752 23.404 0 1.463 2.194 1.951 2.682.488Z"/>
    <path fill="#fff" d="M292.062 436.386c-.244 8.045 11.702 28.523 34.618 19.016 22.185-9.021 28.768-51.44-2.925-31.206-16.09 10.727-26.33 12.434-31.693 12.19Z"/>
    <path fill="#213547" d="M286.943 436.63c6.582 2.194 12.92.244 19.015-1.951 9.02-3.169 16.334-9.02 24.867-13.164 11.702-5.607 16.334 1.95 13.165 12.921-3.17 11.702-13.409 21.941-26.086 22.428-11.214 1.219-23.16-9.02-22.185-20.478.975-4.876-6.095-6.339-7.314-1.707.244 8.289 5.364 14.14 10.727 19.016 10.727 8.777 27.061 6.826 37.788-1.219 8.289-6.582 15.115-17.065 13.652-28.28-.488-4.875-5.12-10.483-10.239-10.726-11.946-.975-19.016 7.07-28.28 12.433-7.314 4.144-15.603 9.264-24.135 8.533-1.463-.488-2.438 1.462-.975 2.194Z"/>
    <path fill="#213547" d="M343.503 427.609c-3.9 5.607-9.995 8.533-16.334 9.996-1.462.487-2.681.487-3.9.487-2.194 0-4.389 1.707-5.608 2.926-5.85 4.632-13.896 5.363-21.209 5.607-1.707 0-1.707 2.925 0 2.682 7.801-.488 16.09-1.219 23.404-4.876 1.462-.488 2.194-.975 3.413-.975 4.632.487 8.289-2.438 11.702-4.389 3.9-2.194 7.801-4.388 12.433-5.363 2.194-.488 3.413-2.438 3.169-4.632-.487-3.413-5.363-4.388-7.07-1.463Zm-22.186-130.184c-5.364-.488-8.046-6.827-5.12-11.702 1.707-2.438 3.901-4.632 7.07-5.851 9.264-2.926 39.494 3.656 52.659 18.771 11.702 13.897-30.23.976-54.609-1.218Zm-64.362 3.9c4.145-1.219 5.364-7.314 1.951-11.214-1.707-1.951-4.145-3.657-6.827-4.145-8.288-1.463-27.304 6.095-32.667 20.479-4.876 12.433 17.796-.244 37.543-5.12Zm101.904 52.659c5.851-.243 10.24-5.119 9.752-10.97l-.244-6.826c-.244-5.851-5.119-10.24-10.97-9.752-5.851.244-10.24 5.12-9.752 10.971l.244 6.826c.244 5.607 5.119 9.995 10.97 9.751Zm-102.635 3.657c5.364-.244 9.508-4.876 9.264-10.239l-.243-6.339c-.244-5.363-4.876-9.508-10.24-9.264-5.363.244-9.508 4.876-9.264 10.239l.244 6.339c.244 5.363 4.876 9.508 10.239 9.264Z"/>
    <path fill="#213547" d="M336.919 340.819c8.045-5.363 16.822-9.02 26.573-7.07 3.17.488 6.339 1.463 8.289 3.657.732.975 2.438.732 2.438-.731-.244-4.876-4.388-8.045-8.289-9.996-7.557-3.9-18.04-3.169-24.866 1.951-2.438 1.462-10.727 10.483-6.339 12.433.975.488 1.463.244 2.194-.244Zm-69.723 1.22c0-10.24-12.677-13.896-20.478-10.24-4.388 1.951-7.558 5.851-8.777 10.483-.487 1.463 1.707 2.682 2.682 1.463 4.145-4.876 11.214-7.314 16.822-4.388 1.706.975 1.95 1.707 2.438 2.682 0 4.875 7.069 4.632 7.313 0Z"/>
    <path fill="#213547" d="M192.107 222.093c-16.577-14.383-40.957-36.081-15.846-66.311 25.11-30.23 71.431-18.528 71.431-18.528s-9.752-27.792 17.309-37.787c32.668-11.946 125.308 24.135 125.308 24.135 6.826-.244 13.409-.488 19.504-.488 79.963-1.706 103.123 48.758 104.098 94.103 0 0 27.061 9.021 33.887 52.172 2.194 13.896 4.388 31.692-.975 53.146-14.384 58.51-53.146 99.223-77.769 119.945-9.264-6.826 7.07-16.334 5.851-27.548 52.902-25.842 41.444-88.496 13.164-92.153-21.697-2.682-33.155 9.995-38.519 20.235-2.194 2.925 27.061-160.171-141.642-106.781-33.399 10.483-67.774 19.747-91.178 2.926-2.682 5.119-4.388 11.214-4.876 20.234 0 0-40.713-15.846-34.618-32.424 1.95-5.607 14.871-4.876 14.871-4.876Z"/>
    <path fill="#213547" d="M319.364 384.215c11.215.244 45.833.487 56.56.731 18.528.244 32.424-15.846 30.717-34.131-.243-6.094 0-14.627-.243-20.722-.488-15.846-14.628-29.255-30.474-28.767l-41.201.487c-3.169 0-12.189.244-15.359.244-13.164-.244-25.598 9.508-28.523 22.429-.975 3.657-.732 7.558-.732 10.727v20.722c.244 15.359 13.896 28.524 29.255 28.28Zm0-5.364c-12.677.488-24.379-10.483-24.623-23.16-.243-6.582 0-13.652 0-20.478-1.462-14.871 9.752-28.524 24.867-28.036 10.483.244 45.589.487 56.56.731 13.164 0 24.379 11.946 23.403 25.111v7.801c-.243 5.363.488 14.627-.731 19.503-2.438 10.24-12.189 18.041-22.672 18.041h-5.12c-7.07 0-44.37.487-51.684.487Zm-98.246-70.455 19.259.244c5.363.243 11.702-.732 16.334 2.437 4.388 2.926 6.339 8.289 6.095 13.409 0 6.339 0 12.921.244 19.259l.243-.975c-3.413 11.946-8.045 23.404-15.115 33.4l2.438-1.463c-1.95.487-5.363.487-7.313.487-7.314.244-15.847.732-23.161.732-6.826 0-13.408-5.12-14.871-11.946-.487-1.95-.487-5.363-.487-7.314 0-10.483-.244-20.722.243-31.205-.487-9.264 6.583-17.553 16.091-17.065Zm0-7.314c-12.921 0-21.942 12.433-19.747 24.623.487 10.483.243 20.722.243 31.205-1.219 12.19 6.095 23.16 18.772 24.135 5.364.244 10.483.244 15.603.488 2.681 0 9.264.488 11.702.488 1.219.243 3.169 0 4.388 0 .975 0 1.95-.732 2.438-1.463 7.557-11.214 12.921-23.648 16.09-36.569 0-8.289.731-16.578 0-24.866-1.463-9.752-10.239-18.041-20.235-18.285-6.826-.244-22.428.244-29.254.244Z"/>
    <path fill="#213547" d="M292.792 323.511c-6.582-2.926-13.896-4.145-21.21-3.657-2.438.244-4.875.975-7.07 2.925l-3.169 2.682c-3.169 2.682.732 7.314 3.901 4.632 3.9-3.413 8.532-2.925 13.165-2.681 4.632.487 9.02 1.462 13.408 3.169 4.144 1.706 6.826-4.388 2.925-6.339l-1.95-.731Zm109.706 8.776c1.706 3.901 3.657 4.389 6.826 4.145l7.07.244c14.14 0 28.523-.244 42.663-2.438 4.876-.244 5.12-7.07.244-7.314l-56.559-1.95c-1.707 0-2.926 1.706-2.194 3.169l1.95 4.144Z"/>
    <path fill="#213547" d="M43.395 205.516C-104.586 490.507 155.539 812.067 465.64 733.567c139.204-34.619 251.104-155.295 274.264-296.937 26.33-140.912-37.3-292.306-156.27-372.025C420.539-47.54 194.545-10.24 77.769 150.175c-.731.732-.487 1.951.488 2.682.731.731 1.95.488 2.682-.488 16.09-20.722 34.374-39.494 54.365-56.315 32.912-28.036 71.431-49.977 112.144-64.849C454.67-43.882 682.127 80.94 727.472 297.67c51.196 242.815-155.295 466.372-401.523 432.972C136.035 706.75-5.12 531.464 10.483 340.82c3.413-46.077 15.603-91.666 35.837-133.598.488-.731 0-1.706-.73-2.194-.732-.487-1.708-.244-2.195.488Z"/>
  </g>
</svg>
