<svg xmlns="http://www.w3.org/2000/svg" width="460" height="500" fill="currentColor" viewBox="0 0 460 500">
  <path d="M101.652 404.863c1.018.727 2.181 1.454 3.199 2.181 1.163.727 2.181 1.454 3.345 2.036 1.018.582 1.89 1.164 2.908 1.745.146.146.291.146.437.291 3.344 2.036 6.834 3.927 10.325 5.672a32.89 32.89 0 0 0 3.199 1.599s.145.146.291.146l3.49 1.745c2.327 1.163 4.799 2.181 7.126 3.199 1.163.582 2.472 1.018 3.636 1.455 1.163.436 2.472 1.017 3.635 1.454 1.164.436 2.472 1.018 3.636 1.454h.145c1.164.436 2.472.873 3.636 1.309 2.617.872 5.381 1.745 7.998 2.617.873.291 1.891.582 2.763.873 2.763.873 5.526 1.6 8.289 2.181 1.018.291 2.036.437 3.2.727 2.617.582 5.381 1.164 7.998 1.746.582.145 1.018.145 1.6.29.872.146 1.89.291 2.763.437 1.309.145 2.472.436 3.781.581.582.146 1.163.146 1.745.291.727.146 1.6.291 2.472.291 2.327.291 4.799.582 7.126.873.727.145 1.6.145 2.327.291h.145c1.018.145 2.036.145 3.054.29 1.018.146 2.036.146 3.054.146.582 0 1.309.145 1.891.145 1.163 0 2.181.146 3.199.146 1.454 0 2.763.145 4.217.145h7.272c61.369-.872 116.485-26.904 155.895-68.204 0 0 0-.146.145-.146 4.363-3.926.582-24.867-17.014-38.101-22.105-16.724-75.04-27.194-75.04-27.194s-20.504-3.345-96.562 12.506c-44.5 9.307-78.384 22.832-97.289 59.479-3.926 7.562-7.853 19.196 5.963 25.304Z"/>
  <path d="M192.542 318.48c-27.921 5.672-57.734 11.78-80.711 30.249-7.707 6.253-12.797 15.415-17.014 24.286-2.036 4.363-4.072 8.871-5.672 13.67-.872 3.199-2.181 6.835-1.454 10.616.145 1.018 1.018 2.327 1.745 3.054 3.345 3.344 6.98 5.38 10.616 7.998 21.377 14.833 45.954 25.304 71.404 30.83 56.715 12.361 118.085 2.763 167.965-27.049 16.579-10.034 31.848-22.25 44.937-36.647 1.454-1.745 1.454-4.654 1.454-6.544-.146-4.363-1.309-8.58-2.763-12.507-3.49-9.016-7.999-18.032-15.706-24.286-5.526-3.781-11.489-6.98-17.597-9.598-19.196-8.143-39.41-13.815-60.205-16.142-1.746-.145-2.036 2.327-.291 2.618 19.923 4.072 39.701 10.18 58.17 18.469 6.689 3.345 13.815 6.253 19.196 11.488 5.09 5.527 8.725 12.361 11.634 19.342 1.89 4.217 3.199 10.907 2.617 14.252-9.161 10.906-19.923 20.504-31.557 28.794-63.696 44.5-160.403 47.408-228.171 10.325-6.108-3.345-12.071-7.126-17.742-11.052-2.763-1.891-5.672-3.491-7.853-5.672-.146-.145 0 0 0 .145 0 .146.145.291.145.291-.145-1.745.437-4.072 1.164-6.398 2.617-8.435 6.835-17.306 11.343-25.014 7.126-11.488 19.196-18.759 31.412-24.576 8.434-3.927 17.305-6.981 26.321-9.889 9.017-2.909 18.179-5.381 27.34-7.562 2.327-.582 1.6-3.927-.727-3.491Z"/>
  <path d="M81.73 425.513c2.763-21.523 14.978-57.734 22.395-67.477 8.144-10.616 11.488-13.961 38.683-23.123 1.454-7.271 6.835-25.595 13.234-33.302 9.743-14.688 36.356-18.033 44.354-16.288 0 0 43.046-15.124 92.636-15.124 15.706 3.49 33.884 10.616 43.773 25.595 6.689 9.889-.873 13.088 2.472 22.104.872 2.327 21.232 13.961 29.521 20.942 3.781 3.053 7.998 10.761 10.907 20.795 5.817 20.505-.436 48.863 6.835 73.585 13.961 47.7 42.319 61.951 42.319 61.951H53.081c.29-.145 22.686-24.286 28.648-69.658Z"/>
  <path d="M83.91 425.804c2.909-19.051 8.726-37.956 16.142-55.698 3.636-8.58 9.162-16.869 16.87-21.959 3.926-2.472 8.289-4.363 12.797-6.253 4.508-1.745 9.162-3.345 13.67-4.945.727-.29 1.309-.872 1.454-1.599.582-2.909 1.309-5.672 2.182-8.58 3.781-11.78 7.853-24.868 18.905-31.703 8.434-5.09 18.469-7.562 28.212-7.998 1.891 0 3.927 0 5.672.291h.581c.146 0 .437 0 .582-.146 6.981-3.345 14.688-5.381 22.25-7.417 22.686-5.235 46.391-7.416 69.659-7.562 14.251 3.345 34.175 11.198 42.9 25.741 1.454 2.326 2.181 4.653 1.891 7.271-.291 2.908-1.309 6.108-.582 9.162.291 1.308.582 2.763 1.163 3.926 1.164 1.6 3.054 2.618 4.508 3.636 7.562 4.944 15.27 9.307 22.541 14.397 2.472 1.745 4.799 3.345 6.544 5.817 5.09 7.271 8.144 15.996 9.453 24.722 2.327 17.742 0 35.774 2.327 53.516 2.617 17.742 9.452 34.902 19.05 50.026 6.69 10.18 14.834 19.633 25.159 26.177l1.018-4.072H53.08l1.6 3.636c4.363-4.945 7.853-10.326 11.052-15.997 9.889-16.579 15.706-35.338 18.178-54.389Zm-4.363-.582c-1.6 12.361-4.653 24.577-9.307 36.211-4.653 11.489-10.47 22.686-18.614 32.139-1.163 1.309-.145 3.781 1.6 3.636h375.777c1.164 0 2.182-1.018 2.182-2.182 0-.872-.437-1.599-1.164-1.89-2.327-1.309-4.653-3.2-6.835-5.09-19.05-17.16-30.975-42.61-34.902-67.914-3.344-23.704 2.909-49.299-7.707-71.839-2.472-5.236-5.526-10.762-10.471-14.107-9.016-6.689-18.905-11.634-27.776-18.178-.145 0-.145-.145-.145-.145.145.145.291.436.291.582-.873-2.036-1.164-3.782-.873-6.108.436-2.909 1.163-6.835.145-9.889-.436-1.745-1.308-3.345-2.181-4.654-10.471-15.706-28.939-22.686-46.536-26.613-4.944.146-10.034-.727-14.979-.727-6.835 0-13.815 1.018-20.65 1.891-19.632 3.054-38.538 8.289-57.879 12.506l1.309-.145c-4.508-.873-8.726-.436-13.088.145-27.922 4.218-37.375 16.433-44.937 42.464-.872 2.909-1.599 5.817-2.327 8.871l1.455-1.745c-13.961 4.945-29.667 9.453-38.538 22.396-3.199 3.926-5.526 8.58-7.562 13.233-7.417 18.615-13.234 37.375-16.288 57.152Z"/>
  <path d="M310.918 329.824c-10.761 22.977-27.485 42.464-47.408 57.879-.728.582 0 1.745.872 1.309 17.742-8.435 32.721-22.832 41.592-40.283 2.908-5.817 5.38-12.07 6.253-18.614.291-.727-.873-1.018-1.309-.291Zm-170.293 4.799c-.436 24.286 9.453 49.153 28.358 64.859.437.437 1.018.291 1.455-.145.436-.436.29-1.018-.146-1.454-4.217-4.072-8.435-8.29-11.634-13.234-6.689-9.598-10.761-20.941-12.652-32.43-.872-5.671-1.454-11.779-1.018-17.451.146-2.763-4.217-3.054-4.363-.145Zm85.656 57.733c3.345 11.78 6.108 24.577 4.508 36.793-.436 2.763 3.781 3.49 4.363.581.727-6.689-.145-13.233-1.309-19.632-1.309-6.399-2.908-12.506-5.09-18.614-.581-1.454-3.054-.727-2.472.872Zm-46.245-2.181c-4.799 10.325-8.144 21.087-10.761 31.993-.291 1.164.436 2.327 1.599 2.618 1.164.291 2.327-.436 2.618-1.6 1.454-8.143 3.345-16.287 5.962-24.286.873-2.617 1.745-5.235 2.763-7.853.582-1.308-1.454-2.326-2.181-.872Z"/>
  <path d="M336.222 317.317c-5.38 29.376-26.031 54.244-50.898 70.095a166.24 166.24 0 0 1-26.759 13.815c-.581.291-.872.873-.581 1.454.145.582.872.873 1.309.582 9.598-3.49 18.905-7.853 27.63-13.088 17.742-10.471 33.303-25.013 43.773-42.755 5.381-9.162 9.598-18.76 11.634-29.23.291-1.745-.872-3.345-2.618-3.636-1.599-.436-3.344.873-3.49 2.763ZM235.007 432.348c4.072-.436 6.981-4.217 6.108-8.289l-1.6-7.708c-.581-3.053-3.49-5.235-6.544-4.799-3.054.291-5.526 2.909-5.526 6.108v7.853c-.145 4.072 3.345 7.271 7.562 6.835Zm-67.041-5.381c3.926 1.455 8.143-.872 9.161-4.944l1.891-7.708c.727-3.053-.873-6.107-3.926-7.271-2.909-1.018-6.254.291-7.563 3.054l-3.49 7.126c-1.745 3.926 0 8.435 3.927 9.743Zm189.488 68.059s1.309-32.429 5.672-41.155M100.78 422.605s-8.144 45.663-4.945 72.421m28.358-28.503s21.523 3.199 40.428 2.327m126.084-156.768c2.036-5.817 2.908-11.779 2.472-17.887 0-.582-.436-.873-1.018-.873-.436 0-.873.436-.873.873-.436 5.526-2.035 11.197-4.653 15.996-1.309 2.909 3.054 4.799 4.072 1.891Zm-98.307 7.707c4.072-9.161 14.106-13.815 22.977-17.014 5.526-1.745 11.634-3.054 17.451-3.927 14.106-2.181 34.029-5.526 48.135-6.98.146 0 .146-.291 0-.291-4.072-.436-8.143-.436-12.215-.436-12.216.291-24.432 1.599-36.502 3.49-12.07 1.89-25.013 5.526-34.175 14.252-2.908 3.053-5.526 6.544-6.253 10.761-.145.436.436.582.582.145Z"/>
  <path d="M178.874 357.163c3.053 14.979 22.831 23.996 56.134 10.471 34.611-13.961 49.589-47.263 53.37-57.152-20.504-38.392-6.253-65.005-6.253-65.005-47.263-4.072-88.564 51.19-88.564 51.19l-6.398 27.34c-.582 2.326-1.745 4.362-3.49 5.817-3.054 5.38-6.69 17.741-4.799 27.339Z"/>
  <path d="M289.105 310.918c-2.763-4.217-4.508-9.161-5.672-13.96-2.181-10.035-2.908-20.215-3.054-30.394v-3.781c.437-3.781 1.746-7.708 3.2-11.198 1.89-4.654-4.945-7.562-7.126-2.909-.291.582-.291 1.6-.291 2.182-.436 19.778-1.309 45.227 11.198 61.66.872.873 2.618-.436 1.745-1.6Zm-97.143-14.542c-2.182 1.309-2.909 3.054-3.2 4.799-.872 3.49-.581 7.271-1.454 10.907-.727 3.49-2.908 6.835-3.49 10.47-.727 3.782-2.909 11.78-3.781 15.706-.291.873.291 1.891 1.309 2.036.581.146 1.018 0 1.454-.291 1.89-1.599 2.763-3.199 3.926-5.235 1.891-3.49 3.2-6.689 4.363-10.616 1.018-3.49.582-7.271 1.454-10.907.727-3.49 2.763-6.835 3.49-10.47.437-1.745.582-3.636-.727-5.817-.872-.873-2.326-1.164-3.344-.582Z"/>
  <path d="M181.491 334.768c27.776-1.454 50.462-10.18 72.567-49.59-18.615 16.433-40.574 22.686-63.696 25.595l-3.054 13.379c-.582 2.327-4.072 9.162-5.817 10.616Z"/>
  <path d="M182.653 329.387c-4.944 9.308-7.853 20.941-4.799 31.267 2.327 7.271 9.017 12.652 16.288 14.688 16.869 4.508 36.356-2.618 51.335-10.616 18.469-10.326 32.139-27.631 40.864-46.536.582-1.455-1.454-2.618-2.326-1.164-3.054 6.108-6.545 12.07-10.471 17.451-3.927 5.526-8.435 10.616-13.525 15.124-14.833 13.379-34.902 21.669-54.97 21.669-20.65-.582-28.503-11.489-23.704-31.558.727-3.199 1.89-6.544 3.49-9.307.872-1.163-1.309-2.472-2.182-1.018Zm-56.278-174.655c-2.618 12.216-3.927 22.105 3.199 54.68 6.98 32.43-10.034 39.119 30.248 91.036 16.433 21.232 56.28 15.269 88.564-6.69 10.907-7.416 15.56-26.467 23.704-39.992 6.399-10.616 9.307.437 17.742-8.725 11.489-12.507 25.304-37.665 18.469-82.165-11.052-72.13-68.204-80.566-110.523-72.567-42.609 8.144-64.423 32.284-71.403 64.423Z"/>
  <path d="M282.561 257.984c3.345-5.672 7.707-10.616 11.779-15.852 3.927-5.38 7.126-11.343 9.744-17.451 17.305-42.464 10.616-102.233-31.848-127.246-17.597-10.18-38.829-12.652-58.607-11.053-42.318 3.054-81.147 22.541-90.308 67.332-4.945 19.778 1.745 40.137 5.526 59.479 1.745 9.598.291 19.487.436 29.376.145 10.034 2.909 20.068 6.69 29.375 2.326 6.399 6.398 12.071 10.616 17.306 6.98 8.435 13.96 17.015 22.831 23.559 2.036 1.454 5.672 2.181 8.144 2.472 6.835 1.018 13.525 1.309 20.36.873 26.758-1.164 55.406-14.107 66.168-39.992.436-1.018-1.018-1.745-1.6-.873-13.961 22.105-39.555 33.012-65.005 34.466-7.853.436-15.851.291-23.559-1.309-3.781-1.89-7.125-5.235-10.325-8.289-7.853-7.853-15.851-16.288-21.523-25.886-6.835-12.943-10.616-27.049-9.452-41.737.291-6.544.436-13.379-.873-19.923-1.163-6.544-2.617-12.797-3.49-19.487a144.14 144.14 0 0 1-1.309-19.341c.727-18.76 6.835-38.102 18.76-52.644 26.322-32.72 88.564-41.3 123.611-18.905 22.105 13.67 32.43 39.264 35.775 64.132 5.09 29.812 3.635 59.188-20.069 80.856l-6.98 7.272c-2.763 3.199 2.181 6.98 4.508 3.49Z"/>
  <path d="M265.401 211.738s4.508-21.813 25.74-19.196c18.324 2.327 24.723 46.246-16.869 58.461"/>
  <path d="M276.162 231.953c3.345-1.891 5.672-5.09 5.817-9.017-.145-2.908-.582-6.253.145-9.161.437-2.763 3.345-3.491 5.527-3.345 2.326.436 3.781 3.345 4.217 5.671 0 .146.145.582.145.728.146.727 1.309.727 1.6 0 1.891-5.672-2.327-11.925-8.435-11.198-8.58.581-9.743 9.598-8.143 16.433.872 2.908-.291 5.526-1.891 7.998l-.291.436c-.727.873.437 2.036 1.309 1.455Zm-116.339-35.63c-2.182 10.326-6.254 19.924-11.343 28.94-4.509 11.052 7.125 21.523 17.451 21.087 1.163 0 1.308-1.6.29-1.891-6.544-2.036-12.506-6.399-13.524-13.088-.436-2.036.145-3.781 1.163-5.526 4.799-9.017 7.708-19.342 6.981-29.522a.51.51 0 0 0-1.018 0Z"/>
  <path d="M266.128 211.884c3.345-8.58 10.616-16.724 20.359-16.578.873-.146 2.327.145 3.2.145 2.472.145 4.508 1.018 6.398 2.763 9.308 9.307 7.708 25.74.146 36.065-2.618 3.636-5.963 6.835-9.744 9.453-3.781 2.618-7.998 4.654-12.506 6.399-1.018.291-.582 1.89.436 1.745 9.743-2.036 19.051-6.835 25.449-14.833 9.889-11.925 11.925-31.848.146-43.482-2.618-2.327-6.253-4.072-9.889-4.072-1.163 0-2.909-.291-4.072 0-6.108.29-11.925 3.344-15.706 8.143-3.345 4.072-5.235 9.017-5.817 13.961 0 .873 1.309 1.164 1.6.291Zm-91.908 48.427c-.146 4.799 6.98 17.014 20.65 11.343 13.234-5.381 17.16-30.685-1.745-18.615-9.598 6.399-15.706 7.417-18.905 7.272Z"/>
  <path d="M171.166 260.456c3.926 1.309 7.707.146 11.343-1.163 5.381-1.891 9.743-5.381 14.833-7.853 6.981-3.345 9.744 1.163 7.853 7.707-1.89 6.981-7.998 13.089-15.56 13.379-6.69.727-13.816-5.38-13.234-12.215.582-2.909-3.636-3.781-4.363-1.018.146 4.944 3.2 8.434 6.399 11.343 6.399 5.235 16.142 4.072 22.541-.727 4.944-3.927 9.016-10.18 8.144-16.87-.291-2.908-3.054-6.253-6.108-6.398-7.126-.582-11.343 4.217-16.87 7.416-4.362 2.473-9.307 5.527-14.397 5.09-.872-.291-1.454.873-.581 1.309Z"/>
  <path d="M204.905 255.075c-2.327 3.345-5.962 5.09-9.744 5.963-.872.29-1.599.29-2.326.29-1.309 0-2.618 1.018-3.345 1.746-3.49 2.763-8.289 3.199-12.652 3.344-1.018 0-1.018 1.745 0 1.6 4.654-.291 9.598-.727 13.961-2.909.872-.29 1.309-.581 2.036-.581 2.763.291 4.944-1.454 6.98-2.618 2.327-1.309 4.654-2.618 7.417-3.199 1.309-.291 2.036-1.454 1.89-2.763-.291-2.036-3.199-2.618-4.217-.873Zm-13.235-77.657c-3.199-.291-4.799-4.072-3.054-6.98 1.018-1.455 2.327-2.763 4.218-3.49 5.526-1.746 23.558 2.181 31.411 11.197 6.981 8.289-18.032.582-32.575-.727Zm-38.392 2.327c2.472-.727 3.199-4.363 1.163-6.69-1.018-1.163-2.472-2.181-4.072-2.472-4.944-.873-16.287 3.636-19.487 12.216-2.908 7.416 10.616-.146 22.396-3.054Zm60.787 31.412c3.49-.146 6.108-3.054 5.817-6.544l-.146-4.072c-.145-3.49-3.053-6.108-6.544-5.817-3.49.145-6.108 3.054-5.817 6.544l.146 4.072c.145 3.345 3.054 5.962 6.544 5.817Zm-61.223 2.181c3.199-.145 5.671-2.908 5.526-6.108l-.145-3.781c-.146-3.199-2.909-5.671-6.108-5.526-3.2.145-5.672 2.909-5.527 6.108l.146 3.781c.145 3.199 2.908 5.671 6.108 5.526Z"/>
  <path d="M200.977 203.304c4.799-3.2 10.035-5.381 15.852-4.218 1.89.291 3.781.873 4.944 2.182.436.581 1.454.436 1.454-.436-.145-2.909-2.617-4.8-4.944-5.963-4.508-2.327-10.762-1.89-14.833 1.163-1.455.873-6.399 6.254-3.782 7.417.582.291.873.146 1.309-.145Zm-41.591.727c0-6.108-7.562-8.289-12.215-6.108-2.618 1.164-4.508 3.49-5.235 6.253-.291.873 1.017 1.6 1.599.873 2.472-2.909 6.69-4.363 10.034-2.618 1.018.582 1.164 1.018 1.455 1.6 0 2.908 4.217 2.763 4.362 0Z"/>
  <path d="M114.595 132.482c-9.889-8.58-24.431-21.523-9.453-39.556 14.979-18.032 42.61-11.052 42.61-11.052s-5.817-16.578 10.325-22.54c19.487-7.127 74.748 14.396 74.748 14.396 4.072-.145 7.999-.29 11.634-.29 47.7-1.019 61.515 29.084 62.097 56.133 0 0 16.142 5.381 20.214 31.121 1.309 8.29 2.617 18.906-.582 31.703-8.58 34.902-31.703 59.188-46.39 71.549-5.527-4.072 4.217-9.744 3.49-16.433 31.557-15.415 24.722-52.789 7.853-54.971-12.943-1.599-19.778 5.963-22.977 12.071-1.309 1.745 16.142-95.544-84.492-63.696-19.923 6.253-40.428 11.779-54.389 1.745-1.6 3.054-2.618 6.689-2.909 12.07 0 0-24.286-9.453-20.65-19.342 1.163-3.344 8.871-2.908 8.871-2.908Z"/>
  <path d="M190.505 229.19c6.69.145 27.34.29 33.739.436 11.052.145 19.341-9.453 18.323-20.36-.145-3.635 0-8.725-.145-12.361-.291-9.452-8.725-17.451-18.178-17.16l-24.577.291c-1.89 0-7.271.145-9.162.145-7.853-.145-15.269 5.672-17.014 13.379-.582 2.182-.437 4.509-.437 6.399v12.361c.146 9.162 8.29 17.015 17.451 16.87Zm0-3.2c-7.562.291-14.542-6.253-14.688-13.815-.145-3.927 0-8.144 0-12.216-.872-8.871 5.817-17.015 14.834-16.724 6.253.146 27.194.291 33.738.437 7.853 0 14.543 7.125 13.961 14.978v4.654c-.145 3.199.291 8.725-.436 11.634-1.454 6.108-7.271 10.761-13.525 10.761h-3.054c-4.217 0-26.467.291-30.83.291ZM131.9 183.963l11.488.145c3.2.145 6.981-.436 9.744 1.454 2.617 1.745 3.781 4.945 3.635 7.999 0 3.781 0 7.707.146 11.488l.145-.582c-2.036 7.126-4.799 13.961-9.016 19.924l1.454-.873c-1.163.291-3.199.291-4.363.291-4.362.145-9.452.436-13.815.436-4.072 0-7.998-3.054-8.871-7.126-.291-1.163-.291-3.199-.291-4.362 0-6.254-.145-12.361.146-18.615-.291-5.526 3.926-10.47 9.598-10.179Zm0-4.363c-7.708 0-13.088 7.416-11.78 14.688.291 6.253.146 12.361.146 18.614-.727 7.271 3.635 13.815 11.197 14.397 3.2.146 6.254.146 9.308.291 1.599 0 5.526.291 6.98.291.727.145 1.891 0 2.618 0 .581 0 1.163-.436 1.454-.873 4.508-6.689 7.707-14.106 9.598-21.813 0-4.945.436-9.889 0-14.834-.873-5.817-6.108-10.761-12.07-10.907-4.072-.145-13.379.146-17.451.146Z"/>
  <path d="M174.655 192.979c-3.927-1.745-8.29-2.472-12.652-2.182-1.455.146-2.909.582-4.218 1.746l-1.89 1.599c-1.891 1.6.436 4.363 2.327 2.763 2.326-2.036 5.089-1.745 7.853-1.599 2.763.291 5.38.872 7.998 1.89 2.472 1.018 4.072-2.617 1.745-3.781l-1.163-.436Zm65.441 5.235c1.018 2.327 2.181 2.618 4.072 2.472l4.217.146c8.435 0 17.015-.146 25.449-1.454 2.909-.146 3.054-4.218.146-4.363l-33.739-1.164c-1.018 0-1.745 1.018-1.309 1.891l1.164 2.472Z"/>
  <path d="M47 25h392.628c11.19 0 20.203 9.18 19.996 20.369l-.387 20.951-.762 37.226-.953 24.755-1.334 27.92c-.146 1.404-2.215 1.41-2.288 0l-.762-27.92V46.406c0-8.739-7.084-15.822-15.822-15.822H48.046c-9.148 0-16.565 7.417-16.565 16.565v429.399c0 9.457 7.667 17.124 17.124 17.124h386.233c10.107 0 18.3-8.193 18.3-18.3v-95.518l.762-45.508-.381-136.805c.126-1.625 2.5-1.621 2.669 0l2.668 136.618L460 379.854V475c0 13.807-11.193 25-25 25H47c-12.15 0-22-9.85-22-22V47c0-12.15 9.85-22 22-22Z"/>
</svg>
